<svg id="visual" viewBox="0 0 1920 1920" width="1920" height="1920" xmlns="http://www.w3.org/2000/svg" xmlns:xlink="http://www.w3.org/1999/xlink" version="1.1"><g stroke-width="1" stroke-linejoin="bevel"><path d="M1033.7 847.3L1050.7 631L862.3 675Z" fill="#1a172b" stroke="#1a172b"></path><path d="M862.3 675L814.3 838.3L1033.7 847.3Z" fill="#171525" stroke="#171525"></path><path d="M1050.7 631L1040.7 456.7L862.3 675Z" fill="#1e1934" stroke="#1e1934"></path><path d="M862.3 675L679 819.3L814.3 838.3Z" fill="#1d1831" stroke="#1d1831"></path><path d="M663 603L679 819.3L862.3 675Z" fill="#191628" stroke="#191628"></path><path d="M1283 833.3L1281 642L1050.7 631Z" fill="#191628" stroke="#191628"></path><path d="M1050.7 631L1261 425.7L1040.7 456.7Z" fill="#161422" stroke="#161422"></path><path d="M1033.7 847.3L1283 833.3L1050.7 631Z" fill="#191628" stroke="#191628"></path><path d="M831.3 388.7L663 603L862.3 675Z" fill="#1d1831" stroke="#1d1831"></path><path d="M668 1030.7L888.3 1074.7L814.3 838.3Z" fill="#14121c" stroke="#14121c"></path><path d="M814.3 838.3L888.3 1074.7L1033.7 847.3Z" fill="#191628" stroke="#191628"></path><path d="M1033.7 847.3L1283 1052.7L1283 833.3Z" fill="#1d1831" stroke="#1d1831"></path><path d="M888.3 1074.7L1047.7 1081.7L1033.7 847.3Z" fill="#211a3a" stroke="#211a3a"></path><path d="M1040.7 456.7L831.3 388.7L862.3 675Z" fill="#1e1934" stroke="#1e1934"></path><path d="M1281 642L1261 425.7L1050.7 631Z" fill="#1b182e" stroke="#1b182e"></path><path d="M1040.7 456.7L1068.7 207.3L831.3 388.7Z" fill="#171525" stroke="#171525"></path><path d="M679 819.3L668 1030.7L814.3 838.3Z" fill="#1f1937" stroke="#1f1937"></path><path d="M420.7 815.3L668 1030.7L679 819.3Z" fill="#1d1831" stroke="#1d1831"></path><path d="M1047.7 1081.7L1283 1052.7L1033.7 847.3Z" fill="#1f1937" stroke="#1f1937"></path><path d="M831.3 388.7L667 391.7L663 603Z" fill="#1e1934" stroke="#1e1934"></path><path d="M429.7 432.7L462.7 675L663 603Z" fill="#191628" stroke="#191628"></path><path d="M663 603L462.7 675L679 819.3Z" fill="#1b182e" stroke="#1b182e"></path><path d="M1261 425.7L1068.7 207.3L1040.7 456.7Z" fill="#191628" stroke="#191628"></path><path d="M831.3 388.7L676 181.3L667 391.7Z" fill="#1b182e" stroke="#1b182e"></path><path d="M1283 833.3L1518.3 642L1281 642Z" fill="#1b182e" stroke="#1b182e"></path><path d="M1281 642L1493.3 465.7L1261 425.7Z" fill="#1f1937" stroke="#1f1937"></path><path d="M1261 425.7L1316 177.3L1068.7 207.3Z" fill="#15131f" stroke="#15131f"></path><path d="M1531.3 883.3L1518.3 642L1283 833.3Z" fill="#15131f" stroke="#15131f"></path><path d="M1068.7 207.3L883.3 182.3L831.3 388.7Z" fill="#15131f" stroke="#15131f"></path><path d="M462.7 675L420.7 815.3L679 819.3Z" fill="#1b182e" stroke="#1b182e"></path><path d="M888.3 1074.7L1050.7 1307L1047.7 1081.7Z" fill="#15131f" stroke="#15131f"></path><path d="M1047.7 1081.7L1270 1296L1283 1052.7Z" fill="#1a172b" stroke="#1a172b"></path><path d="M642 1243L847.3 1288L888.3 1074.7Z" fill="#1d1831" stroke="#1d1831"></path><path d="M642 1243L888.3 1074.7L668 1030.7Z" fill="#15131f" stroke="#15131f"></path><path d="M1283 1052.7L1531.3 883.3L1283 833.3Z" fill="#14121c" stroke="#14121c"></path><path d="M847.3 1288L1050.7 1307L888.3 1074.7Z" fill="#1a172b" stroke="#1a172b"></path><path d="M1283 1052.7L1508.3 1085.7L1531.3 883.3Z" fill="#171525" stroke="#171525"></path><path d="M1518.3 642L1493.3 465.7L1281 642Z" fill="#1d1831" stroke="#1d1831"></path><path d="M414.7 1062.7L642 1243L668 1030.7Z" fill="#211a3a" stroke="#211a3a"></path><path d="M667 391.7L429.7 432.7L663 603Z" fill="#211a3a" stroke="#211a3a"></path><path d="M214.3 611L238.3 885.3L420.7 815.3Z" fill="#171525" stroke="#171525"></path><path d="M412.7 243.3L429.7 432.7L667 391.7Z" fill="#1f1937" stroke="#1f1937"></path><path d="M883.3 182.3L676 181.3L831.3 388.7Z" fill="#1e1934" stroke="#1e1934"></path><path d="M1050.7 1307L1270 1296L1047.7 1081.7Z" fill="#1e1934" stroke="#1e1934"></path><path d="M1270 1296L1508.3 1085.7L1283 1052.7Z" fill="#1f1937" stroke="#1f1937"></path><path d="M238.3 885.3L414.7 1062.7L420.7 815.3Z" fill="#191628" stroke="#191628"></path><path d="M420.7 815.3L414.7 1062.7L668 1030.7Z" fill="#171525" stroke="#171525"></path><path d="M1487.3 199.3L1316 177.3L1261 425.7Z" fill="#1d1831" stroke="#1d1831"></path><path d="M1068.7 207.3L1099.7 0L883.3 182.3Z" fill="#161422" stroke="#161422"></path><path d="M883.3 182.3L817.3 0L676 181.3Z" fill="#15131f" stroke="#15131f"></path><path d="M1493.3 465.7L1487.3 199.3L1261 425.7Z" fill="#1e1934" stroke="#1e1934"></path><path d="M1698.7 393.7L1487.3 199.3L1493.3 465.7Z" fill="#211a3a" stroke="#211a3a"></path><path d="M1243 0L1068.7 207.3L1316 177.3Z" fill="#211a3a" stroke="#211a3a"></path><path d="M1243 0L1099.7 0L1068.7 207.3Z" fill="#1e1934" stroke="#1e1934"></path><path d="M464.7 0L412.7 243.3L676 181.3Z" fill="#1d1831" stroke="#1d1831"></path><path d="M676 181.3L412.7 243.3L667 391.7Z" fill="#1a172b" stroke="#1a172b"></path><path d="M214.3 611L420.7 815.3L462.7 675Z" fill="#14121c" stroke="#14121c"></path><path d="M1099.7 0L817.3 0L883.3 182.3Z" fill="#14121c" stroke="#14121c"></path><path d="M1727.7 871.3L1716.7 614L1518.3 642Z" fill="#211a3a" stroke="#211a3a"></path><path d="M1518.3 642L1716.7 614L1493.3 465.7Z" fill="#171525" stroke="#171525"></path><path d="M1727.7 871.3L1518.3 642L1531.3 883.3Z" fill="#171525" stroke="#171525"></path><path d="M214.3 611L462.7 675L429.7 432.7Z" fill="#171525" stroke="#171525"></path><path d="M1678.7 1043.7L1727.7 871.3L1531.3 883.3Z" fill="#161422" stroke="#161422"></path><path d="M1504.3 1494.3L1511.3 1284L1270 1296Z" fill="#1a172b" stroke="#1a172b"></path><path d="M1270 1296L1511.3 1284L1508.3 1085.7Z" fill="#1e1934" stroke="#1e1934"></path><path d="M1508.3 1085.7L1678.7 1043.7L1531.3 883.3Z" fill="#14121c" stroke="#14121c"></path><path d="M1683.7 1317L1678.7 1043.7L1508.3 1085.7Z" fill="#1b182e" stroke="#1b182e"></path><path d="M223.3 407.7L214.3 611L429.7 432.7Z" fill="#1d1831" stroke="#1d1831"></path><path d="M1500.3 0L1243 0L1316 177.3Z" fill="#171525" stroke="#171525"></path><path d="M414.7 1062.7L401.7 1267L642 1243Z" fill="#191628" stroke="#191628"></path><path d="M856.3 1523.3L1050.7 1307L847.3 1288Z" fill="#1f1937" stroke="#1f1937"></path><path d="M856.3 1523.3L1054.7 1520.3L1050.7 1307Z" fill="#211a3a" stroke="#211a3a"></path><path d="M195.3 1104.7L401.7 1267L414.7 1062.7Z" fill="#1b182e" stroke="#1b182e"></path><path d="M856.3 1523.3L847.3 1288L652 1499.3Z" fill="#15131f" stroke="#15131f"></path><path d="M1050.7 1307L1054.7 1520.3L1270 1296Z" fill="#15131f" stroke="#15131f"></path><path d="M817.3 0L664 0L676 181.3Z" fill="#15131f" stroke="#15131f"></path><path d="M652 1499.3L847.3 1288L642 1243Z" fill="#171525" stroke="#171525"></path><path d="M1716.7 614L1698.7 393.7L1493.3 465.7Z" fill="#191628" stroke="#191628"></path><path d="M412.7 243.3L223.3 407.7L429.7 432.7Z" fill="#1f1937" stroke="#1f1937"></path><path d="M216.3 242.3L223.3 407.7L412.7 243.3Z" fill="#15131f" stroke="#15131f"></path><path d="M447.7 1517.3L652 1499.3L642 1243Z" fill="#1b182e" stroke="#1b182e"></path><path d="M1054.7 1520.3L1300 1524.3L1270 1296Z" fill="#1a172b" stroke="#1a172b"></path><path d="M1291 1707.7L1300 1524.3L1054.7 1520.3Z" fill="#1e1934" stroke="#1e1934"></path><path d="M0 1105.7L195.3 1104.7L238.3 885.3Z" fill="#1e1934" stroke="#1e1934"></path><path d="M238.3 885.3L195.3 1104.7L414.7 1062.7Z" fill="#1b182e" stroke="#1b182e"></path><path d="M401.7 1267L447.7 1517.3L642 1243Z" fill="#1d1831" stroke="#1d1831"></path><path d="M664 0L464.7 0L676 181.3Z" fill="#1a172b" stroke="#1a172b"></path><path d="M1690.7 183.3L1500.3 0L1487.3 199.3Z" fill="#14121c" stroke="#14121c"></path><path d="M1487.3 199.3L1500.3 0L1316 177.3Z" fill="#15131f" stroke="#15131f"></path><path d="M1698.7 393.7L1690.7 183.3L1487.3 199.3Z" fill="#211a3a" stroke="#211a3a"></path><path d="M1920 248.3L1690.7 183.3L1698.7 393.7Z" fill="#1d1831" stroke="#1d1831"></path><path d="M0 600L0 828.3L214.3 611Z" fill="#211a3a" stroke="#211a3a"></path><path d="M0 1105.7L183.3 1254L195.3 1104.7Z" fill="#1b182e" stroke="#1b182e"></path><path d="M213.3 0L216.3 242.3L412.7 243.3Z" fill="#15131f" stroke="#15131f"></path><path d="M1504.3 1494.3L1683.7 1317L1511.3 1284Z" fill="#1e1934" stroke="#1e1934"></path><path d="M1511.3 1284L1683.7 1317L1508.3 1085.7Z" fill="#161422" stroke="#161422"></path><path d="M1920 886.3L1920 629L1727.7 871.3Z" fill="#1a172b" stroke="#1a172b"></path><path d="M1300 1524.3L1504.3 1494.3L1270 1296Z" fill="#1e1934" stroke="#1e1934"></path><path d="M207.3 1453.3L447.7 1517.3L401.7 1267Z" fill="#14121c" stroke="#14121c"></path><path d="M645 1698.7L888.3 1693.7L856.3 1523.3Z" fill="#191628" stroke="#191628"></path><path d="M0 828.3L238.3 885.3L214.3 611Z" fill="#15131f" stroke="#15131f"></path><path d="M195.3 1104.7L183.3 1254L401.7 1267Z" fill="#1e1934" stroke="#1e1934"></path><path d="M1727.7 871.3L1920 629L1716.7 614Z" fill="#1e1934" stroke="#1e1934"></path><path d="M1716.7 614L1920 453.7L1698.7 393.7Z" fill="#191628" stroke="#191628"></path><path d="M1920 886.3L1727.7 871.3L1920 1045.7Z" fill="#161422" stroke="#161422"></path><path d="M1920 1045.7L1727.7 871.3L1678.7 1043.7Z" fill="#15131f" stroke="#15131f"></path><path d="M645 1698.7L856.3 1523.3L652 1499.3Z" fill="#161422" stroke="#161422"></path><path d="M856.3 1523.3L888.3 1693.7L1054.7 1520.3Z" fill="#1a172b" stroke="#1a172b"></path><path d="M1300 1524.3L1514.3 1693.7L1504.3 1494.3Z" fill="#14121c" stroke="#14121c"></path><path d="M0 600L214.3 611L0 459.7Z" fill="#1d1831" stroke="#1d1831"></path><path d="M0 459.7L214.3 611L223.3 407.7Z" fill="#191628" stroke="#191628"></path><path d="M1920 629L1920 453.7L1716.7 614Z" fill="#1a172b" stroke="#1a172b"></path><path d="M1920 1310L1920 1045.7L1678.7 1043.7Z" fill="#15131f" stroke="#15131f"></path><path d="M888.3 1693.7L1055.7 1737.7L1054.7 1520.3Z" fill="#1e1934" stroke="#1e1934"></path><path d="M216.3 242.3L0 459.7L223.3 407.7Z" fill="#1b182e" stroke="#1b182e"></path><path d="M1920 0L1682.7 0L1690.7 183.3Z" fill="#171525" stroke="#171525"></path><path d="M1690.7 183.3L1682.7 0L1500.3 0Z" fill="#15131f" stroke="#15131f"></path><path d="M447.7 1517.3L645 1698.7L652 1499.3Z" fill="#1f1937" stroke="#1f1937"></path><path d="M888.3 1693.7L874.3 1920L1055.7 1737.7Z" fill="#1e1934" stroke="#1e1934"></path><path d="M1504.3 1494.3L1720.7 1492.3L1683.7 1317Z" fill="#1e1934" stroke="#1e1934"></path><path d="M1055.7 1737.7L1291 1707.7L1054.7 1520.3Z" fill="#161422" stroke="#161422"></path><path d="M0 828.3L0 1105.7L238.3 885.3Z" fill="#1d1831" stroke="#1d1831"></path><path d="M183.3 1254L207.3 1453.3L401.7 1267Z" fill="#1b182e" stroke="#1b182e"></path><path d="M0 1298L207.3 1453.3L183.3 1254Z" fill="#1a172b" stroke="#1a172b"></path><path d="M447.7 1517.3L403.7 1678.7L645 1698.7Z" fill="#15131f" stroke="#15131f"></path><path d="M464.7 0L213.3 0L412.7 243.3Z" fill="#14121c" stroke="#14121c"></path><path d="M216.3 242.3L0 175.3L0 459.7Z" fill="#211a3a" stroke="#211a3a"></path><path d="M1920 453.7L1920 248.3L1698.7 393.7Z" fill="#211a3a" stroke="#211a3a"></path><path d="M1514.3 1693.7L1720.7 1492.3L1504.3 1494.3Z" fill="#14121c" stroke="#14121c"></path><path d="M1683.7 1317L1920 1310L1678.7 1043.7Z" fill="#1f1937" stroke="#1f1937"></path><path d="M1484.3 1920L1514.3 1693.7L1291 1707.7Z" fill="#1b182e" stroke="#1b182e"></path><path d="M1291 1707.7L1514.3 1693.7L1300 1524.3Z" fill="#211a3a" stroke="#211a3a"></path><path d="M207.3 1453.3L403.7 1678.7L447.7 1517.3Z" fill="#191628" stroke="#191628"></path><path d="M645 1698.7L874.3 1920L888.3 1693.7Z" fill="#211a3a" stroke="#211a3a"></path><path d="M1720.7 1492.3L1920 1310L1683.7 1317Z" fill="#171525" stroke="#171525"></path><path d="M1920 1474.3L1920 1310L1720.7 1492.3Z" fill="#191628" stroke="#191628"></path><path d="M213.3 0L0 175.3L216.3 242.3Z" fill="#211a3a" stroke="#211a3a"></path><path d="M0 1105.7L0 1298L183.3 1254Z" fill="#161422" stroke="#161422"></path><path d="M207.3 1453.3L231.3 1741.7L403.7 1678.7Z" fill="#1e1934" stroke="#1e1934"></path><path d="M621 1920L874.3 1920L645 1698.7Z" fill="#1a172b" stroke="#1a172b"></path><path d="M1055.7 1737.7L1240 1920L1291 1707.7Z" fill="#1f1937" stroke="#1f1937"></path><path d="M874.3 1920L1081.7 1920L1055.7 1737.7Z" fill="#15131f" stroke="#15131f"></path><path d="M1920 248.3L1920 0L1690.7 183.3Z" fill="#211a3a" stroke="#211a3a"></path><path d="M1920 1672.7L1920 1474.3L1720.7 1492.3Z" fill="#171525" stroke="#171525"></path><path d="M1081.7 1920L1240 1920L1055.7 1737.7Z" fill="#211a3a" stroke="#211a3a"></path><path d="M1514.3 1693.7L1737.7 1727.7L1720.7 1492.3Z" fill="#1f1937" stroke="#1f1937"></path><path d="M213.3 0L0 0L0 175.3Z" fill="#1d1831" stroke="#1d1831"></path><path d="M465.7 1920L645 1698.7L403.7 1678.7Z" fill="#14121c" stroke="#14121c"></path><path d="M465.7 1920L621 1920L645 1698.7Z" fill="#14121c" stroke="#14121c"></path><path d="M0 1298L0 1497.3L207.3 1453.3Z" fill="#1a172b" stroke="#1a172b"></path><path d="M1687.7 1920L1737.7 1727.7L1514.3 1693.7Z" fill="#1e1934" stroke="#1e1934"></path><path d="M0 1689.7L231.3 1741.7L207.3 1453.3Z" fill="#161422" stroke="#161422"></path><path d="M1240 1920L1484.3 1920L1291 1707.7Z" fill="#1a172b" stroke="#1a172b"></path><path d="M231.3 1741.7L465.7 1920L403.7 1678.7Z" fill="#211a3a" stroke="#211a3a"></path><path d="M1920 1920L1920 1672.7L1737.7 1727.7Z" fill="#1d1831" stroke="#1d1831"></path><path d="M1737.7 1727.7L1920 1672.7L1720.7 1492.3Z" fill="#14121c" stroke="#14121c"></path><path d="M0 1497.3L0 1689.7L207.3 1453.3Z" fill="#161422" stroke="#161422"></path><path d="M231.3 1741.7L222.3 1920L465.7 1920Z" fill="#161422" stroke="#161422"></path><path d="M1484.3 1920L1687.7 1920L1514.3 1693.7Z" fill="#14121c" stroke="#14121c"></path><path d="M0 1920L222.3 1920L231.3 1741.7Z" fill="#1a172b" stroke="#1a172b"></path><path d="M1687.7 1920L1920 1920L1737.7 1727.7Z" fill="#191628" stroke="#191628"></path><path d="M0 1689.7L0 1920L231.3 1741.7Z" fill="#1a172b" stroke="#1a172b"></path></g></svg>